<?xml version="1.0" encoding="UTF-8"?>
<!DOCTYPE svg PUBLIC "-//W3C//DTD SVG 1.1//EN" "http://www.w3.org/Graphics/SVG/1.1/DTD/svg11.dtd">
<svg xmlns="http://www.w3.org/2000/svg" version="1.1" width="40px" height="40px" style="shape-rendering:geometricPrecision; text-rendering:geometricPrecision; image-rendering:optimizeQuality; fill-rule:evenodd; clip-rule:evenodd" xmlns:xlink="http://www.w3.org/1999/xlink">
<g><path style="opacity:0.963" fill="#f3312c" d="M 15.5,-0.5 C 18.1667,-0.5 20.8333,-0.5 23.5,-0.5C 34.1144,2.36946 39.1144,9.36946 38.5,20.5C 35.4816,20.6646 32.4816,20.498 29.5,20C 28.0836,17.1651 26.417,14.4985 24.5,12C 16.1942,9.13472 11.5275,11.8014 10.5,20C 12.0729,24.5709 15.2396,27.4043 20,28.5C 20.4983,31.8168 20.665,35.1501 20.5,38.5C 4.92924,37.3913 -1.57076,29.0579 1,13.5C 3.12363,5.87387 7.95697,1.20721 15.5,-0.5 Z"/></g>
<g><path style="opacity:0.94" fill="#fff7f7" d="M 23.5,22.5 C 28.8333,22.5 34.1667,22.5 39.5,22.5C 39.5,27.8333 39.5,33.1667 39.5,38.5C 34.8333,38.5 30.1667,38.5 25.5,38.5C 26.8993,37.1103 28.5659,36.1103 30.5,35.5C 31.1515,36.0906 31.8182,36.7573 32.5,37.5C 33.1067,37.3764 33.44,37.0431 33.5,36.5C 37.348,36.3186 39.0147,34.3186 38.5,30.5C 38.336,26.738 36.336,24.738 32.5,24.5C 31.8333,25.5 31.1667,26.5 30.5,27.5C 28.6137,26.6394 26.7804,25.6394 25,24.5C 24.5008,29.1548 24.3342,33.8215 24.5,38.5C 23.5119,33.3595 23.1786,28.0262 23.5,22.5 Z"/></g>
<g><path style="opacity:1" fill="#ff9190" d="M 32.5,24.5 C 32.1832,28.7016 32.5166,32.7016 33.5,36.5C 33.44,37.0431 33.1067,37.3764 32.5,37.5C 31.8182,36.7573 31.1515,36.0906 30.5,35.5C 30.5,32.8333 30.5,30.1667 30.5,27.5C 31.1667,26.5 31.8333,25.5 32.5,24.5 Z"/></g>
<g><path style="opacity:1" fill="#ff3836" d="M 32.5,24.5 C 36.336,24.738 38.336,26.738 38.5,30.5C 39.0147,34.3186 37.348,36.3186 33.5,36.5C 32.5166,32.7016 32.1832,28.7016 32.5,24.5 Z"/></g>
<g><path style="opacity:1" fill="#ff3736" d="M 30.5,27.5 C 30.5,30.1667 30.5,32.8333 30.5,35.5C 28.5659,36.1103 26.8993,37.1103 25.5,38.5C 25.1667,38.5 24.8333,38.5 24.5,38.5C 24.3342,33.8215 24.5008,29.1548 25,24.5C 26.7804,25.6394 28.6137,26.6394 30.5,27.5 Z"/></g>
<g><path style="opacity:0.125" fill="#7d7d7d" d="M 23.5,22.5 C 23.1786,28.0262 23.5119,33.3595 24.5,38.5C 24.8333,38.5 25.1667,38.5 25.5,38.5C 30.1667,38.5 34.8333,38.5 39.5,38.5C 39.5,38.8333 39.5,39.1667 39.5,39.5C 33.8333,39.5 28.1667,39.5 22.5,39.5C 22.1778,33.642 22.5111,27.9753 23.5,22.5 Z"/></g>
</svg>
