<svg xmlns="http://www.w3.org/2000/svg" xmlns:xlink="http://www.w3.org/1999/xlink" width="130" zoomAndPan="magnify" viewBox="0 0 97.5 37.5" height="50" preserveAspectRatio="xMidYMid meet" version="1.0"><defs><g/><clipPath id="id1"><path d="M 1.136719 3.140625 L 31 3.140625 L 31 33 L 1.136719 33 Z M 1.136719 3.140625 " clip-rule="nonzero"/></clipPath><clipPath id="id2"><path d="M 1.136719 3.140625 L 31.453125 3.140625 L 31.453125 33.457031 L 1.136719 33.457031 Z M 1.136719 3.140625 " clip-rule="nonzero"/></clipPath><clipPath id="id3"><path d="M 8.207031 6.554688 L 11.160156 6.554688 L 11.160156 21.847656 L 8.207031 21.847656 Z M 8.207031 6.554688 " clip-rule="nonzero"/></clipPath><clipPath id="id4"><path d="M 6 14 L 12 14 L 12 19 L 6 19 Z M 6 14 " clip-rule="nonzero"/></clipPath><clipPath id="id5"><path d="M 11.332031 14 L 11.820312 14.636719 L 6.917969 18.386719 L 6.429688 17.75 Z M 11.332031 14 " clip-rule="nonzero"/></clipPath><clipPath id="id6"><path d="M 8.207031 13.085938 L 25.109375 13.085938 L 25.109375 29.988281 L 8.207031 29.988281 Z M 8.207031 13.085938 " clip-rule="nonzero"/></clipPath><clipPath id="id7"><path d="M 11.71875 16.59375 L 21.644531 16.59375 L 21.644531 26.519531 L 11.71875 26.519531 Z M 11.71875 16.59375 " clip-rule="nonzero"/></clipPath></defs><g clip-path="url(#id1)"><path fill="#1f4690" d="M 29.484375 32.953125 L 3.109375 32.953125 C 2.304688 32.953125 1.640625 32.292969 1.640625 31.488281 L 1.640625 5.113281 C 1.640625 4.308594 2.304688 3.644531 3.109375 3.644531 L 29.464844 3.644531 C 30.265625 3.644531 30.929688 4.308594 30.929688 5.113281 L 30.929688 31.464844 C 30.953125 32.292969 30.289062 32.953125 29.484375 32.953125 " fill-opacity="1" fill-rule="nonzero"/></g><g clip-path="url(#id2)"><path fill="#ffa500" d="M 29.484375 4.085938 C 30.046875 4.085938 30.507812 4.550781 30.507812 5.113281 L 30.507812 31.488281 C 30.507812 32.050781 30.046875 32.511719 29.484375 32.511719 L 3.109375 32.511719 C 2.546875 32.511719 2.085938 32.050781 2.085938 31.488281 L 2.085938 5.113281 C 2.085938 4.550781 2.546875 4.085938 3.109375 4.085938 L 29.484375 4.085938 M 29.484375 3.140625 L 3.109375 3.140625 C 2.023438 3.140625 1.136719 4.027344 1.136719 5.113281 L 1.136719 31.488281 C 1.136719 32.574219 2.023438 33.457031 3.109375 33.457031 L 29.484375 33.457031 C 30.570312 33.457031 31.453125 32.574219 31.453125 31.488281 L 31.453125 5.113281 C 31.453125 4.027344 30.570312 3.140625 29.484375 3.140625 " fill-opacity="1" fill-rule="nonzero"/></g><g clip-path="url(#id3)"><path fill="#ffffff" d="M 8.207031 6.558594 L 11.160156 6.558594 L 11.160156 21.84375 L 8.207031 21.84375 L 8.207031 6.558594 " fill-opacity="1" fill-rule="nonzero"/></g><g clip-path="url(#id4)"><g clip-path="url(#id5)"><path fill="#1f4690" d="M 11.324219 14.003906 L 11.8125 14.644531 L 6.925781 18.382812 L 6.4375 17.742188 L 11.324219 14.003906 " fill-opacity="1" fill-rule="nonzero"/></g></g><g clip-path="url(#id6)"><path fill="#ffffff" d="M 16.660156 13.085938 C 11.992188 13.085938 8.207031 16.867188 8.207031 21.535156 C 8.207031 26.203125 11.992188 29.988281 16.660156 29.988281 C 21.328125 29.988281 25.109375 26.203125 25.109375 21.535156 C 25.109375 16.867188 21.328125 13.085938 16.660156 13.085938 " fill-opacity="1" fill-rule="nonzero"/></g><g clip-path="url(#id7)"><path fill="#ffa500" d="M 16.679688 16.59375 C 13.9375 16.59375 11.71875 18.816406 11.71875 21.554688 C 11.71875 24.296875 13.9375 26.519531 16.679688 26.519531 C 19.421875 26.519531 21.644531 24.296875 21.644531 21.554688 C 21.644531 18.816406 19.421875 16.59375 16.679688 16.59375 " fill-opacity="1" fill-rule="nonzero"/></g><g fill="#1f4690" fill-opacity="1"><g transform="translate(32.807814, 27.239508)"><g><path d="M 2.566406 0 L 9.71875 0 C 13.265625 0 15.480469 -1.886719 15.480469 -4.933594 C 15.480469 -6.921875 14.5 -8.410156 12.6875 -9.136719 C 14.121094 -9.867188 14.980469 -11.226562 14.980469 -12.941406 C 14.980469 -15.785156 12.761719 -17.621094 9.390625 -17.621094 L 2.566406 -17.621094 Z M 4.78125 -2.0625 L 4.78125 -7.980469 L 9.640625 -7.980469 C 11.933594 -7.980469 13.214844 -6.898438 13.214844 -5.035156 C 13.214844 -3.148438 11.933594 -2.0625 9.667969 -2.0625 Z M 4.78125 -9.996094 L 4.78125 -15.558594 L 9.339844 -15.558594 C 11.480469 -15.558594 12.714844 -14.550781 12.714844 -12.761719 C 12.714844 -11 11.503906 -9.996094 9.339844 -9.996094 Z M 4.78125 -9.996094 "/></g></g></g><g fill="#1f4690" fill-opacity="1"><g transform="translate(49.693923, 27.239508)"><g><path d="M 2.566406 0 L 13.542969 0 L 13.542969 -2.0625 L 4.78125 -2.0625 L 4.78125 -7.957031 L 12.636719 -7.957031 L 12.636719 -9.996094 L 4.78125 -9.996094 L 4.78125 -15.558594 L 13.265625 -15.558594 L 13.265625 -17.621094 L 2.566406 -17.621094 Z M 2.566406 0 "/></g></g></g><g fill="#1f4690" fill-opacity="1"><g transform="translate(64.86877, 27.239508)"><g><path d="M 2.566406 0 L 13.542969 0 L 13.542969 -2.0625 L 4.78125 -2.0625 L 4.78125 -7.957031 L 12.636719 -7.957031 L 12.636719 -9.996094 L 4.78125 -9.996094 L 4.78125 -15.558594 L 13.265625 -15.558594 L 13.265625 -17.621094 L 2.566406 -17.621094 Z M 2.566406 0 "/></g></g></g><g fill="#1f4690" fill-opacity="1"><g transform="translate(80.043617, 27.239508)"><g><path d="M 2.566406 0 L 4.78125 0 L 4.78125 -5.789062 L 8.535156 -5.789062 C 12.511719 -5.789062 15.078125 -8.082031 15.078125 -11.707031 C 15.078125 -15.304688 12.511719 -17.621094 8.535156 -17.621094 L 2.566406 -17.621094 Z M 4.78125 -7.855469 L 4.78125 -15.507812 L 8.484375 -15.507812 C 11.328125 -15.507812 12.8125 -14.199219 12.8125 -11.679688 C 12.8125 -9.164062 11.328125 -7.855469 8.484375 -7.855469 Z M 4.78125 -7.855469 "/></g></g></g></svg>