<?xml version="1.0" encoding="UTF-8"?>
<svg version="1.1" xmlns="http://www.w3.org/2000/svg" width="250" height="50">
<path d="M0 0 C82.5 0 165 0 250 0 C250 16.5 250 33 250 50 C167.5 50 85 50 0 50 C0 33.5 0 17 0 0 Z " fill="#FCFBFC" transform="translate(0,0)"/>
<path d="M0 0 C0.825 0.5775 1.65 1.155 2.5 1.75 C3.36625 2.3275 4.2325 2.905 5.125 3.5 C9.30734167 7.46221843 11.38159629 10.88514157 11.75 16.6875 C11.6675 17.698125 11.585 18.70875 11.5 19.75 C8.2 19.75 4.9 19.75 1.5 19.75 C0.88125 18.3578125 0.88125 18.3578125 0.25 16.9375 C-1.86634805 13.00674891 -1.86634805 13.00674891 -5.5 10.75 C-8.58360227 10.28916645 -11.42225691 10.22384172 -14.5 10.75 C-17.00160818 12.62620613 -18.11945652 13.98891303 -19.5 16.75 C-19.84971507 22.58527064 -19.84971507 22.58527064 -17.5 27.75 C-14.38214887 30.10355339 -14.38214887 30.10355339 -9.5 30.75 C-9.5 34.38 -9.5 38.01 -9.5 41.75 C-15.87916132 42.41449597 -19.52493268 40.73214422 -24.5 36.75 C-29.65771481 31.89184943 -31.54434298 26.85079656 -31.875 19.875 C-31.72069548 13.8298935 -30.01596569 9.37687833 -25.81640625 4.9921875 C-18.24478672 -1.74899634 -9.82734142 -3.50976479 0 0 Z " fill="#F93833" transform="translate(34.5,4.25)"/>
<path d="M0 0 C1.98 0 3.96 0 6 0 C7.8984375 1.96875 7.8984375 1.96875 9.375 4.5 C9.87773438 5.3353125 10.38046875 6.170625 10.8984375 7.03125 C11.26195313 7.6809375 11.62546875 8.330625 12 9 C12.33 6.03 12.66 3.06 13 0 C14.65 0 16.3 0 18 0 C18 6.93 18 13.86 18 21 C16.35 21 14.7 21 13 21 C11.234375 19.1015625 11.234375 19.1015625 9.75 16.625 C9.24984375 15.81289063 8.7496875 15.00078125 8.234375 14.1640625 C7.45391143 12.79578143 6.70445957 11.40891915 6 10 C5.67 13.63 5.34 17.26 5 21 C3.35 21 1.7 21 0 21 C0 14.07 0 7.14 0 0 Z " fill="#1A0C4F" transform="translate(64,16)"/>
<path d="M0 0 C2.64 0 5.28 0 8 0 C9.00736628 2.93502595 10.00460504 5.87339461 11 8.8125 C11.28617188 9.64587891 11.57234375 10.47925781 11.8671875 11.33789062 C12.13789063 12.14033203 12.40859375 12.94277344 12.6875 13.76953125 C12.93886719 14.50792236 13.19023437 15.24631348 13.44921875 16.00708008 C14 18 14 18 14 21 C12.35 21 10.7 21 9 21 C8.67 19.68 8.34 18.36 8 17 C5.36 17 2.72 17 0 17 C-0.33 18.32 -0.66 19.64 -1 21 C-2.65 21 -4.3 21 -6 21 C-4.55613874 13.78069368 -2.42211826 6.94889267 0 0 Z " fill="#190B4E" transform="translate(212,16)"/>
<path d="M0 0 C4.95 0 9.9 0 15 0 C15 1.32 15 2.64 15 4 C12.03 4 9.06 4 6 4 C6 5.32 6 6.64 6 8 C8.64 8 11.28 8 14 8 C14 9.65 14 11.3 14 13 C11.36 13 8.72 13 6 13 C6 14.32 6 15.64 6 17 C8.97 17 11.94 17 15 17 C15 18.32 15 19.64 15 21 C10.05 21 5.1 21 0 21 C0 14.07 0 7.14 0 0 Z " fill="#1F1253" transform="translate(110,16)"/>
<path d="M0 0 C1.76923828 0.04060547 1.76923828 0.04060547 3.57421875 0.08203125 C4.47785156 0.11683594 5.38148438 0.15164063 6.3125 0.1875 C6.3125 1.5075 6.3125 2.8275 6.3125 4.1875 C3.0125 4.5175 -0.2875 4.8475 -3.6875 5.1875 C-3.6875 9.1475 -3.6875 13.1075 -3.6875 17.1875 C-2.0375 17.1875 -0.3875 17.1875 1.3125 17.1875 C1.3125 15.8675 1.3125 14.5475 1.3125 13.1875 C0.6525 13.1875 -0.0075 13.1875 -0.6875 13.1875 C-0.6875 11.8675 -0.6875 10.5475 -0.6875 9.1875 C1.6225 9.1875 3.9325 9.1875 6.3125 9.1875 C6.3125 13.1475 6.3125 17.1075 6.3125 21.1875 C4.20945523 21.2955023 2.10483091 21.37308987 0 21.4375 C-1.75763672 21.50710937 -1.75763672 21.50710937 -3.55078125 21.578125 C-6.6875 21.1875 -6.6875 21.1875 -8.58203125 19.61328125 C-10.07132463 16.34525586 -10.08510157 13.7073491 -10.0625 10.125 C-10.07023438 8.89652344 -10.07796875 7.66804688 -10.0859375 6.40234375 C-9.6875 3.1875 -9.6875 3.1875 -8.58203125 1.265625 C-5.71400382 -0.36648958 -3.26356511 -0.09693758 0 0 Z " fill="#16084C" transform="translate(193.6875,15.8125)"/>
<path d="M0 0 C2.9719385 1.12451727 5.33440687 2.22293791 8 4 C8.73575797 9.06855488 8.73575797 9.06855488 8 12 C3.4 16 3.4 16 0 16 C0 15.01 0 14.02 0 13 C-0.94875 13.495 -1.8975 13.99 -2.875 14.5 C-6 16 -6 16 -8 16 C-8 11.05 -8 6.1 -8 1 C-4.535 2.485 -4.535 2.485 -1 4 C-0.67 2.68 -0.34 1.36 0 0 Z " fill="#FF4A4A" transform="translate(39,30)"/>
<path d="M0 0 C5.61 0 11.22 0 17 0 C17 1.65 17 3.3 17 5 C15.02 5 13.04 5 11 5 C11 10.28 11 15.56 11 21 C9.02 21 7.04 21 5 21 C5 15.72 5 10.44 5 5 C3.35 5 1.7 5 0 5 C0 3.35 0 1.7 0 0 Z " fill="#281B5A" transform="translate(88,16)"/>
<path d="M0 0 C1.98 0 3.96 0 6 0 C6 5.28 6 10.56 6 16 C8.64 16 11.28 16 14 16 C14 17.65 14 19.3 14 21 C9.38 21 4.76 21 0 21 C0 14.07 0 7.14 0 0 Z " fill="#261A59" transform="translate(132,16)"/>
<path d="M0 0 C5.61 0 11.22 0 17 0 C17 1.32 17 2.64 17 4 C15.02 4 13.04 4 11 4 C11 9.61 11 15.22 11 21 C9.35 21 7.7 21 6 21 C6 15.39 6 9.78 6 4 C4.02 4 2.04 4 0 4 C0 2.68 0 1.36 0 0 Z " fill="#120449" transform="translate(230,16)"/>
<path d="M0 0 C1.65 0 3.3 0 5 0 C5 5.61 5 11.22 5 17 C7.64 17 10.28 17 13 17 C13 18.32 13 19.64 13 21 C8.71 21 4.42 21 0 21 C0 14.07 0 7.14 0 0 Z " fill="#0F0147" transform="translate(152,16)"/>
<path d="M0 0 C1.98 0 3.96 0 6 0 C6 6.93 6 13.86 6 21 C4.02 21 2.04 21 0 21 C0 14.07 0 7.14 0 0 Z " fill="#2A1D5B" transform="translate(171,16)"/>
<path d="M0 0 C1.65 0 3.3 0 5 0 C5 6.93 5 13.86 5 21 C3.35 21 1.7 21 0 21 C0 14.07 0 7.14 0 0 Z " fill="#0F0147" transform="translate(52,16)"/>
<path d="M0 0 C6 2 6 2 7 3 C7.50805338 8.24988495 7.50805338 8.24988495 7 11 C4.59140121 13.02829372 3.16955691 14 0 14 C0 9.38 0 4.76 0 0 Z " fill="#FF3232" transform="translate(40,31)"/>
<path d="M0 0 C0.66 0 1.32 0 2 0 C2.33 2.64 2.66 5.28 3 8 C1.68 8 0.36 8 -1 8 C-0.67 5.36 -0.34 2.72 0 0 Z " fill="#D1CEDB" transform="translate(215,21)"/>
</svg>
